<svg xmlns="http://www.w3.org/2000/svg" width="64" height="64" viewBox="0 0 64 64">
  <defs>
    <linearGradient id="g" x1="0%" y1="0%" x2="100%" y2="100%">
      <stop offset="0%" stop-color="#3b82f6"/>
      <stop offset="100%" stop-color="#06b6d4"/>
    </linearGradient>
  </defs>
  <rect x="4" y="4" width="56" height="56" rx="12" fill="#0f1320"/>
  <rect x="12" y="12" width="40" height="40" rx="8" fill="url(#g)"/>
  <path d="M20 40c0-6.63 5.37-12 12-12 2.93 0 5.64 1.04 7.7 2.76l-2.8 2.8A8.7 8.7 0 0 0 32 31.3c-4.26 0-7.7 3.44-7.7 7.7S27.74 46.7 32 46.7a8.7 8.7 0 0 0 8.14-6.3l3.16.92A12 12 0 0 1 32 52C25.37 52 20 46.63 20 40z" fill="#0b0d12" opacity=".9"/>
</svg>
