<svg xmlns="http://www.w3.org/2000/svg" width="220" height="48" viewBox="0 0 220 48">
  <defs>
    <linearGradient id="g" x1="0%" y1="0%" x2="100%" y2="100%">
      <stop offset="0%" stop-color="#3b82f6"/>
      <stop offset="100%" stop-color="#06b6d4"/>
    </linearGradient>
  </defs>
  <rect x="0" y="0" width="220" height="48" rx="10" fill="#0f1320"/>
  <g transform="translate(10,8)">
    <rect x="0" y="0" width="32" height="32" rx="8" fill="url(#g)"/>
    <path d="M9 22c0-4.97 4.03-9 9-9 2.2 0 4.22.78 5.8 2.08l-2.1 2.1A6.5 6.5 0 0 0 18 15.5c-3.04 0-5.5 2.46-5.5 5.5s2.46 5.5 5.5 5.5a6.5 6.5 0 0 0 6.08-4.7l2.36.69A9 9 0 0 1 18 31c-4.97 0-9-4.03-9-9z" fill="#0b0d12" opacity=".9"/>
  </g>
  <text x="52" y="30" font-family="Inter, Segoe UI, Arial, sans-serif" font-size="20" font-weight="700" fill="#eaf4ff">Coursespeak</text>
  <text x="52" y="42" font-family="Inter, Segoe UI, Arial, sans-serif" font-size="10" fill="#9db7ff">Deals & Coupons</text>
</svg>
